<?xml version="1.0" encoding="UTF-8" standalone="no"?>
<svg
   xmlns:dc="http://purl.org/dc/elements/1.1/"
   xmlns:cc="http://creativecommons.org/ns#"
   xmlns:rdf="http://www.w3.org/1999/02/22-rdf-syntax-ns#"
   xmlns:svg="http://www.w3.org/2000/svg"
   xmlns="http://www.w3.org/2000/svg"
   xmlns:sodipodi="http://sodipodi.sourceforge.net/DTD/sodipodi-0.dtd"
   xmlns:inkscape="http://www.inkscape.org/namespaces/inkscape"
   version="1.1"
   id="Layer_1"
   x="0px"
   y="0px"
   width="1200px"
   height="200px"
   viewBox="0 0 1200 200"
   enable-background="new 0 0 1200 200"
   xml:space="preserve"
   sodipodi:docname="icon.svg"
   inkscape:version="1.0.1 (3bc2e813f5, 2020-09-07)"><metadata
   id="metadata293"><rdf:RDF><cc:Work
       rdf:about=""><dc:format>image/svg+xml</dc:format><dc:type
         rdf:resource="http://purl.org/dc/dcmitype/StillImage" /><dc:title></dc:title></cc:Work></rdf:RDF></metadata><defs
   id="defs291" /><sodipodi:namedview
   pagecolor="#ffffff"
   bordercolor="#666666"
   borderopacity="1"
   objecttolerance="10"
   gridtolerance="10"
   guidetolerance="10"
   inkscape:pageopacity="0"
   inkscape:pageshadow="2"
   inkscape:window-width="2633"
   inkscape:window-height="1176"
   id="namedview289"
   showgrid="false"
   inkscape:zoom="1.8966667"
   inkscape:cx="600"
   inkscape:cy="100"
   inkscape:window-x="72"
   inkscape:window-y="27"
   inkscape:window-maximized="0"
   inkscape:current-layer="Layer_1" />
<path
   fill="#FFFFFF"
   d="M165.556,199.954H41.107c-11.826,0-21.961-3.942-29.282-11.263C3.942,181.371,0,171.234,0,159.409  c0-3.379,0.563-6.193,1.126-9.572L27.03,0.61c11.825,0,21.961,3.942,29.282,11.262c7.884,7.321,11.825,16.894,11.825,28.719  c0,3.378,0,6.195-0.563,9.573l-13.515,73.768c-1.126,6.758,0,12.952,3.942,18.583c3.941,5.632,9.01,8.447,15.767,8.447h51.244  c12.389,0,21.961,3.941,29.845,11.262c7.884,7.321,11.263,16.894,11.263,29.282C166.682,193.759,166.119,197.138,165.556,199.954z"
   id="path276"
   style="fill:#000000" />
<path
   fill="#FFFFFF"
   d="M256.78,58.048c5.632-5.068,11.826-7.883,18.583-7.883h50.681c7.32,0,12.389,2.815,16.331,7.883  c3.941,5.631,5.068,11.826,3.941,18.583l-8.447,47.301c-1.126,7.321-4.505,13.516-10.136,19.146  c-5.63,5.631-11.825,7.884-18.583,7.884h-51.243c-7.321,0-12.389-2.815-16.331-8.447c-3.942-5.631-5.068-11.825-3.942-18.583  l9.01-47.301C247.771,69.31,251.149,63.116,256.78,58.048z M183.576,158.283c0,12.389,3.942,21.962,12.389,29.845  c7.883,7.884,18.02,11.826,30.408,11.826h99.671c14.078,0,27.029-5.068,37.729-14.642c11.262-9.573,18.019-21.398,20.272-35.476  l18.02-99.672c0-1.689,0.563-4.505,0.563-8.447c0-11.825-3.942-21.961-11.826-29.846c-7.883-7.883-18.02-11.825-29.845-11.825  H260.159c-14.078,0-26.466,5.068-37.729,14.642c-11.262,9.573-18.02,21.398-20.835,34.913l-17.457,100.235  C183.576,152.652,183.576,155.466,183.576,158.283z"
   id="path278"
   style="fill:#000000" />
<path
   fill="#FFFFFF"
   d="M489.911,58.048c5.631-5.068,11.825-7.883,18.583-7.883h50.681c7.321,0,12.389,2.815,16.331,7.883  c3.941,5.631,5.068,11.826,3.941,18.583l-8.447,47.301c-1.126,7.321-4.504,13.516-10.136,19.146  c-5.631,5.631-11.826,7.884-18.583,7.884h-51.243c-7.321,0-12.389-2.815-16.331-8.447c-3.941-5.631-5.068-11.825-3.941-18.583  l9.009-47.301C480.901,69.31,484.28,63.116,489.911,58.048z M416.706,158.283c0,12.389,3.941,21.962,12.388,29.845  c7.884,7.884,18.021,11.826,30.408,11.826h99.672c14.078,0,27.029-5.068,37.729-14.642c11.262-9.573,18.02-21.398,20.272-35.476  l18.02-99.672c0-1.689,0.563-4.505,0.563-8.447c0-11.825-3.942-21.961-11.826-29.846c-7.883-7.883-18.019-11.825-29.845-11.825  H493.853c-14.078,0-26.466,5.068-37.729,14.642c-11.262,9.573-18.02,21.398-20.835,34.913l-17.457,100.235  C417.269,152.652,416.706,155.466,416.706,158.283z"
   id="path280"
   style="fill:#000000" />
<path
   fill="#FFFFFF"
   d="M726.982,50.165c-11.825,0-21.961-3.942-29.845-11.263c-7.884-7.32-12.389-17.456-12.389-29.282  c0-2.816,0.563-5.631,1.126-9.01h150.352c12.389,0,21.962,3.942,29.846,11.825s11.826,18.02,11.826,29.845  c0,3.942,0,6.758-0.564,8.447l-4.504,24.778c-2.253,13.515-9.01,24.777-20.836,34.349c-11.825,9.574-24.776,14.078-38.854,14.078  h-75.458c-6.757,0-12.952,2.815-19.146,7.884c-5.63,5.632-9.009,11.263-10.136,18.021c-2.252,5.067-3.941,9.572-6.194,14.077  c-5.068,10.136-9.573,16.894-14.641,20.836c-11.263,9.572-23.651,14.641-37.166,14.641l12.951-76.021  c2.253-13.516,9.01-24.777,20.272-34.35c11.262-9.01,23.651-13.515,37.729-13.515h86.719c9.01,0,14.078-4.505,15.768-12.952  c1.689-9.009-2.253-12.952-11.263-12.952h-85.594V50.165z"
   id="path282"
   style="fill:#000000" />
<path
   fill="#FFFFFF"
   d="M908.307,50.727c2.252-14.077,9.009-25.903,20.271-35.476C939.277,5.678,951.666,0.61,965.744,0.61  l-26.467,149.226c-2.815,14.077-9.573,25.902-20.272,35.476c-11.262,9.573-23.651,14.642-37.166,14.642L908.307,50.727z"
   id="path284"
   style="fill:#000000" />
<path
   fill="#FFFFFF"
   d="M1130.736,76.631h-73.768c-3.942,0-6.758-1.126-8.446-3.942c-2.253-2.815-2.816-5.631-2.253-9.573  c1.689-9.01,6.757-12.952,15.768-12.952h73.768c3.942,0,6.758,1.126,8.447,3.941c2.252,2.816,2.815,5.631,2.252,9.573  C1144.814,72.126,1139.747,76.631,1130.736,76.631z M1200,42.28c0-12.388-3.941-21.961-11.825-29.845  c-7.885-7.883-18.021-11.825-29.846-11.825h-100.234c-14.078,0-26.466,5.068-37.729,14.641  c-11.262,10.136-18.02,21.399-20.834,35.476l-26.467,149.227c14.078,0,26.467-5.068,37.729-14.642  c10.699-9.573,17.457-21.398,20.272-35.476c1.126-6.758,4.505-12.389,10.136-17.457c5.632-4.505,11.825-6.758,18.583-6.758h51.244  c6.757,0,12.388,2.253,16.33,7.321c3.941,5.068,5.631,10.698,4.504,16.894c-0.563,3.379-1.126,6.193-1.126,9.009  c0,12.389,3.942,21.962,12.389,29.846c8.447,7.884,18.583,11.263,30.409,11.263L1200,50.727C1200,49.038,1200,46.223,1200,42.28z"
   id="path286"
   style="fill:#000000" />
</svg>
